<?xml version="1.0" encoding="utf-8"?>
<!-- Generator: Adobe Illustrator 22.0.0, SVG Export Plug-In . SVG Version: 6.00 Build 0)  -->
<svg version="1.1" id="Layer_1" xmlns="http://www.w3.org/2000/svg" xmlns:xlink="http://www.w3.org/1999/xlink" x="0px" y="0px"
	 viewBox="0 0 282.3 104.9" style="enable-background:new 0 0 282.3 104.9;" xml:space="preserve">
<style type="text/css">
	.st0{fill:#252525;}
	.st1{fill-rule:evenodd;clip-rule:evenodd;fill:#252525;}
</style>
<g>
	<g>
		<polygon class="st0" points="33.5,51.9 34.2,52.3 34.2,53.1 28.2,56.6 27.5,55.4 33.5,51.9 		"/>
		<polygon class="st0" points="7.8,66.7 8.5,67.9 14.9,64.3 14.2,63 7.8,66.7 		"/>
		<polygon class="st0" points="17.8,61 18.5,62.2 24.5,58.7 23.8,57.5 17.8,61 		"/>
		<polygon class="st0" points="47.4,51.9 46.7,52.3 46.7,53.1 52.8,56.6 53.4,55.4 47.4,51.9 		"/>
		<polygon class="st0" points="73.1,66.7 72.4,67.9 66,64.3 66.7,63 73.1,66.7 		"/>
		<polygon class="st0" points="63.1,61 62.4,62.2 56.4,58.7 57.1,57.5 63.1,61 		"/>
		<polygon class="st1" points="41.1,30 39.7,30 39.7,23.1 41.1,23.1 41.1,30 		"/>
		<polygon class="st1" points="41.1,41.2 40.4,41.5 39.7,41.2 39.7,34.2 41.1,34.2 41.1,41.2 		"/>
		<polygon class="st1" points="39.7,11.6 41.1,11.6 41.1,18.9 39.7,18.9 39.7,11.6 		"/>
		<path class="st0" d="M42,5.7l34.9,20.2l1.2,0.7l0.4,0.2v0.4v1.3v20.2v20.2v1.3v0.4l-0.4,0.2l-1.2,0.7L59.5,81.6l-9,5.2l-1.1,0.6
			v-1.3v-5.4v-0.4l0.4-0.2l6.6-3.8l12.5-7.2v0l3.5-2l0-3.5V48.7V33.9L43.5,50.5v42v1.3v4v0.4l-0.4,0.2L42,99.2l-1.2,0.7l-0.4,0.2
			l-0.4-0.2l-1.2-0.7l-1.2-0.7l-0.4-0.2v-0.4v-4v-1.3v-42L8.6,33.9v14.8v15.8v1.8l0,0l0,0.8l2.2,1.3l13.7,7.9l6.6,3.8l0.4,0.2v0.4
			v5.4v1.3l-1.1-0.6l-9-5.2h0L4,71.5l-1.2-0.7l-0.4-0.2v-0.4v-1.3V48.7V28.6v-1.3v-0.4l0.4-0.2L4,25.9c11.6-6.7,23.3-13.4,34.9-20.2
			h0l1.2-0.7l0.4-0.2l0.4,0.2L42,5.7L42,5.7L42,5.7z M11.7,28.6l28.8,16.6l28.8-16.6L42.9,13.3l-2.4-1.4l-4.8,2.7l-0.3,0.2
			C27.5,19.4,19.6,24,11.7,28.6L11.7,28.6z"/>
	</g>
	<g>
		<g>
			<path class="st0" d="M189.2,35.6c-1.1,1.1-2.5,1.8-4.1,1.8c-1.7,0-3.1-0.6-4.2-1.7c-1-1-1.6-2.5-1.6-4.3c0-1.4,0.5-2.7,1.3-3.7
				c0.8-1,2-1.7,3.4-1.9l0,0c0.3,0,0.6-0.1,1-0.1c0.3,0,0.6,0,0.9,0.1l0,0c1.4,0.2,2.6,0.9,3.5,1.9c0.9,1,1.4,2.3,1.4,3.7
				C190.8,33.1,190.2,34.6,189.2,35.6L189.2,35.6z M185.7,27.3c-0.5-0.1-1-0.1-1.4,0v0c-1,0.2-1.8,0.6-2.4,1.3
				c-0.6,0.7-0.9,1.7-0.9,2.8c0,1.3,0.4,2.4,1.1,3.1c0.7,0.8,1.7,1.2,2.9,1.2c1.1,0,2.2-0.4,2.9-1.2c0.7-0.7,1.1-1.8,1.1-3.1
				c0-1.1-0.3-2-0.9-2.7C187.5,27.9,186.7,27.4,185.7,27.3L185.7,27.3z"/>
			<path class="st0" d="M206.4,26.3c0.1-0.3,0.4-0.5,0.8-0.5h8.9c0.4,0,0.7,0.2,0.8,0.5h0c0,0.1,0.1,0.2,0.1,0.3
				c0,0.1,0,0.2-0.1,0.3h0c-0.1,0.3-0.4,0.5-0.8,0.5h-3.6c0,1.8,0,3.1,0,4.4c0,1.8,0,3.6,0,4.7c0,0.3-0.1,0.5-0.3,0.6
				c-0.2,0.2-0.4,0.3-0.6,0.3c-0.2,0-0.4-0.1-0.6-0.3c-0.1-0.1-0.2-0.3-0.2-0.6v-9.1h-3.6c-0.4,0-0.7-0.2-0.8-0.5h0
				c0-0.1-0.1-0.2-0.1-0.3C206.4,26.5,206.4,26.4,206.4,26.3L206.4,26.3z"/>
			<path class="st0" d="M202.6,37.1l-3.4-3.7h-3v3.1c0,0.4-0.2,0.7-0.5,0.8h0c-0.1,0-0.2,0.1-0.3,0.1l0,0c-0.1,0-0.2,0-0.3-0.1h0
				c-0.3-0.1-0.5-0.4-0.5-0.7v-9.8c0-0.2,0.1-0.5,0.2-0.6l0,0c0.2-0.1,0.4-0.2,0.6-0.2h4.1c1.5,0,2.6,0.4,3.4,1
				c0.9,0.7,1.3,1.8,1.3,2.9c0,0.9-0.3,1.8-0.8,2.4c-0.5,0.5-1.1,0.9-2,1.1l2.5,2.7l0,0c0.3,0.3,0.3,0.6,0.2,0.9
				c0,0.1-0.1,0.2-0.2,0.3c-0.1,0.1-0.2,0.1-0.3,0.2C203.2,37.4,202.9,37.3,202.6,37.1L202.6,37.1L202.6,37.1z M199.4,27.4h-3.2v4.4
				h3.2v0l0.2,0c1,0,1.7-0.3,2.1-0.6c0.4-0.4,0.6-0.8,0.6-1.4h0l0-0.1v0c0-0.7-0.3-1.2-0.8-1.7C201.1,27.7,200.3,27.4,199.4,27.4
				L199.4,27.4z"/>
			<path class="st0" d="M175.1,32.9c-0.8,0.7-1.9,1.1-3.4,1.1h-2.8v2.5c0,0.4-0.2,0.6-0.5,0.8h0c-0.1,0-0.2,0.1-0.3,0.1
				c-0.1,0-0.2,0-0.3-0.1c-0.3-0.1-0.5-0.4-0.5-0.7v-9.9c0-0.2,0.1-0.4,0.3-0.6l0,0c0.2-0.2,0.4-0.2,0.6-0.2h3.7
				c1.4,0,2.5,0.4,3.3,1.1c0.9,0.8,1.3,1.9,1.3,3C176.4,31.1,176,32.2,175.1,32.9L175.1,32.9z M171.8,27.4h-2.9v5h2.8v0l0.1,0
				c1,0,1.7-0.3,2.2-0.8c0.4-0.4,0.6-1,0.6-1.6h0l0-0.1v0c0-0.7-0.3-1.4-0.8-1.9C173.4,27.7,172.7,27.4,171.8,27.4L171.8,27.4z"/>
			<path class="st0" d="M148.3,35.6c-1.1,1.1-2.5,1.8-4.1,1.8c-1.7,0-3.1-0.6-4.2-1.7c-1-1-1.6-2.5-1.6-4.3c0-1.4,0.5-2.7,1.3-3.7
				c0.8-1,2-1.7,3.4-1.9l0,0c0.3,0,0.6-0.1,1-0.1c0.3,0,0.6,0,0.9,0.1l0,0c1.4,0.2,2.6,0.9,3.5,1.9c0.9,1,1.4,2.3,1.4,3.7
				C149.9,33.1,149.3,34.6,148.3,35.6L148.3,35.6z M144.8,27.3c-0.5-0.1-1-0.1-1.4,0v0c-1,0.2-1.8,0.6-2.4,1.3
				c-0.6,0.7-0.9,1.7-0.9,2.8c0,1.3,0.4,2.4,1.1,3.1c0.7,0.8,1.7,1.2,2.9,1.2c1.1,0,2.2-0.4,2.9-1.2c0.7-0.7,1.1-1.8,1.1-3.1
				c0-1.1-0.3-2-0.9-2.7C146.7,27.9,145.8,27.4,144.8,27.3L144.8,27.3z"/>
			<path class="st0" d="M161.5,34.4l-0.1-1.8l0,0v-6.1c0-0.4,0.2-0.6,0.5-0.7c0.1,0,0.2-0.1,0.3-0.1l0,0c0.1,0,0.2,0,0.3,0.1
				c0.3,0.1,0.5,0.3,0.5,0.7v9.8c0,0.3-0.1,0.5-0.2,0.7c-0.1,0.1-0.3,0.2-0.5,0.3h0c-0.2,0-0.4,0-0.6,0c-0.3-0.1-0.5-0.2-0.6-0.4
				l-5.9-8l0.1,1.6l0,0v6.1c0,0.4-0.2,0.7-0.5,0.8h0c-0.1,0-0.2,0.1-0.4,0.1v0c-0.1,0-0.2,0-0.4-0.1c-0.3-0.1-0.5-0.4-0.5-0.8v-9.8
				c0-0.3,0.1-0.5,0.2-0.7c0.1-0.1,0.3-0.2,0.4-0.3c0.2,0,0.4,0,0.5,0c0.2,0.1,0.5,0.2,0.6,0.4l0,0L161.5,34.4L161.5,34.4z"/>
			<path class="st0" d="M136.9,36.7L136.9,36.7c-0.1,0.3-0.4,0.5-0.8,0.5h-7c-0.3,0-0.5-0.1-0.7-0.2c-0.2-0.2-0.2-0.4-0.2-0.6v-9.8
				c0-0.4,0.2-0.7,0.5-0.8l0,0c0.1,0,0.2-0.1,0.3-0.1c0.1,0,0.2,0,0.3,0.1c0.3,0.1,0.5,0.4,0.5,0.8v9.1h6.2c0.4,0,0.7,0.2,0.8,0.5
				l0,0c0,0.1,0.1,0.2,0.1,0.3C137,36.5,136.9,36.6,136.9,36.7L136.9,36.7z"/>
			<path class="st0" d="M123.3,32.3h-6.2v3.3h6.5c0.4,0,0.6,0.2,0.7,0.5h0c0,0.1,0.1,0.2,0.1,0.3c0,0.1,0,0.2-0.1,0.3
				c-0.1,0.3-0.4,0.5-0.7,0.5h-7.2c-0.3,0-0.5-0.1-0.7-0.3l0,0c-0.2-0.2-0.3-0.4-0.3-0.7v-9.4c0-0.3,0.1-0.5,0.3-0.7v0
				c0.2-0.2,0.4-0.3,0.7-0.3h7.2c0.4,0,0.6,0.2,0.7,0.5v0c0,0.1,0.1,0.2,0.1,0.3h0c0,0.1,0,0.2-0.1,0.3c-0.1,0.3-0.4,0.5-0.7,0.5
				h-6.5v3.4h6.2c0.4,0,0.6,0.2,0.7,0.5l0,0c0,0.1,0.1,0.2,0.1,0.3c0,0.1,0,0.2-0.1,0.3C123.9,32.1,123.7,32.3,123.3,32.3
				L123.3,32.3z"/>
			<path class="st0" d="M101.6,26.2l4,6.2l4-6.2c0.1-0.2,0.3-0.4,0.5-0.4h0c0.2,0,0.3,0,0.5,0c0.1,0,0.3,0.1,0.4,0.3l0,0
				c0.1,0.2,0.2,0.4,0.2,0.6v9.9c0,0.4-0.2,0.7-0.5,0.8c-0.1,0-0.2,0.1-0.3,0.1c-0.1,0-0.2,0-0.3-0.1c-0.3-0.1-0.5-0.4-0.5-0.8v-7
				l-3.1,4.8c-0.1,0.2-0.2,0.3-0.4,0.4c-0.1,0.1-0.3,0.1-0.4,0.1h0c-0.1,0-0.3,0-0.4-0.1c-0.1-0.1-0.3-0.2-0.4-0.4l-3.1-4.8v7
				c0,0.4-0.2,0.7-0.5,0.8c-0.1,0-0.2,0.1-0.3,0.1c-0.1,0-0.2,0-0.3-0.1c-0.3-0.1-0.5-0.4-0.5-0.8v-9.9c0-0.3,0.1-0.5,0.2-0.7
				c0.1-0.1,0.2-0.2,0.4-0.2v0c0.1,0,0.3,0,0.4,0C101.2,25.8,101.4,25.9,101.6,26.2L101.6,26.2z"/>
		</g>
		<g>
			<path d="M115.5,63H104v11.4h-4.5V47.7h4.5v11.4h11.5V47.7h4.5v26.7h-4.5V63z"/>
			<path d="M130.9,62.7c2.3,0,4.2,0.6,5.4,1.7v-3.1c0-2.2-1.4-3.4-3.7-3.4c-2.5,0-3.6,0.9-3.6,3h-4.2c0-4.3,2.8-6.4,7.9-6.4
				c4.8,0,7.9,2.4,7.9,7.1v12.9h-3.2l-0.6-1.9c-1.2,1.5-3.3,2.3-5.9,2.3c-4.3,0-7-2-7-6.1C123.8,64.7,126.6,62.7,130.9,62.7z
				 M132.1,71.1c2.5,0,4.2-0.8,4.2-2.5s-1.7-2.6-4.2-2.6c-2.5,0-4,0.8-4,2.6C128.1,70.4,129.6,71.1,132.1,71.1z"/>
			<path d="M161.5,67.4L161.5,67.4c0,4.8-3.2,7.4-8.3,7.4c-5.1,0-8.4-2.6-8.4-7.6V62c0-5,3.3-7.6,8.4-7.6c5,0,8.3,2.6,8.3,7.4v0
				h-4.2v-0.3c0-2.3-1.5-3.5-4-3.5c-2.6,0-4.2,1.3-4.2,3.7v5.7c0,2.4,1.6,3.7,4.1,3.7c2.6,0,4.1-1.2,4.1-3.5v-0.3H161.5z"/>
			<path d="M172.4,66.5l-2.5,2.9v5.1h-4.2V46.2h4.2v17.3l7.4-8.7h5.2l-7.4,8.5l8,11.2h-5.2L172.4,66.5z"/>
			<path d="M191.1,62.7c2.3,0,4.2,0.6,5.4,1.7v-3.1c0-2.2-1.4-3.4-3.7-3.4c-2.5,0-3.6,0.9-3.6,3h-4.2c0-4.3,2.8-6.4,7.9-6.4
				c4.8,0,7.9,2.4,7.9,7.1v12.9h-3.2l-0.6-1.9c-1.2,1.5-3.3,2.3-5.9,2.3c-4.3,0-7-2-7-6.1C184,64.7,186.7,62.7,191.1,62.7z
				 M192.3,71.1c2.5,0,4.2-0.8,4.2-2.5s-1.7-2.6-4.2-2.6c-2.5,0-4,0.8-4,2.6C188.2,70.4,189.8,71.1,192.3,71.1z"/>
			<path d="M211.5,67.5c0,3.2,1.1,3.9,5.5,3.4v3.5c-8,1.3-9.7-1.7-9.7-7.1v-8.9h-3.4v-3.7h3.4v-5.9l4.2-1.3v7.2h5.5v3.7h-5.5V67.5z"
				/>
			<path d="M233.4,74.4V61.6c0-2.4-1.6-3.5-4-3.5s-4.2,1.2-4.2,3.7v12.7H221V46.2h4.2v10.1c1.3-1.3,3.1-1.9,5.3-1.9
				c4.3,0,7.2,2.5,7.2,7.5v12.5H233.4z"/>
			<path d="M258.6,67.2c0,5-3.3,7.6-8.4,7.6c-5,0-8.4-2.6-8.4-7.6V62c0-5,3.3-7.6,8.4-7.6c5,0,8.3,2.6,8.3,7.6V67.2z M254.4,61.7
				c0-2.5-1.6-3.7-4.1-3.7s-4.1,1.2-4.1,3.7v5.8c0,2.5,1.6,3.7,4.1,3.7c2.5,0,4.1-1.2,4.1-3.7V61.7z"/>
			<path d="M263.1,54.8h3.2l0.6,2c1.3-1.6,3.3-2.4,5.7-2.4c4.3,0,7.2,2.5,7.2,7.5v12.5h-4.2V61.6c0-2.4-1.6-3.5-4-3.5
				s-4.2,1.2-4.2,3.7v12.7h-4.2V54.8z"/>
		</g>
	</g>
</g>
</svg>
